<svg id="SvgjsSvg1001" width="550" height="550" xmlns="http://www.w3.org/2000/svg" version="1.1" xmlns:xlink="http://www.w3.org/1999/xlink" xmlns:svgjs="http://svgjs.com/svgjs"><defs id="SvgjsDefs1002"></defs><g id="SvgjsG1008"><svg xmlns="http://www.w3.org/2000/svg" xmlns:xlink="http://www.w3.org/1999/xlink" enable-background="new 0 0 4680 3120" viewBox="0 0 4680 3120" width="550" height="550"><path fill="#f68f30" d="M1793.502,1682.523c0,0-265.137,393.152-9.135,374.854
		c36.564,173.741,128.001,457.177,128.001,457.177s429.732-27.427,466.309-18.293c36.577,9.154,18.283-82.293,18.283-82.293
		s18.294,64.025,128.005,82.293c109.719,18.293,573.293,36.244,612.617-265.143c27.43-210.303-73.154-374.854-320.025-576.028
		c-246.872-201.156-731.458,27.433-731.458,27.433H1793.502z" class="colorf68f30 svgShape"></path><path fill="#f68f30" d="M1500.919,832.19c0,0-365.738,1005.775,457.166,932.621
			c822.911-73.154,886.901-27.433,1005.755-192.009c64.477-89.256,140.856-505.534-51.152-816.411
			c-3.426-90.289,21.449-148.205,67.173-303.653c0,0-226.299,22.863-372.607,160.015c-118.854,0-539.438-63.994-877.746,54.858
			c-128.005-45.725-256.019-36.577-384.02-9.148C1409.495,713.325,1464.342,786.479,1500.919,832.19z" class="colorf68f30 svgShape"></path><circle cx="2724.239" cy="1487.005" r="114.53" fill="#eeaac0" class="coloreeaac0 svgShape"></circle><path fill="#f6cc66" d="M2921.571,759.029c-3.431-90.289,12.562-142.855,58.29-298.302c0,0-247.823,16.918-372.607,152.027
			c114.131,45.987,193.547,81.042,259.714,170.27c82.52,111.281,114.907,294.578,113.632,397.704
			c-2.198,177.674-46.907,334.755-134.938,436.757c-54.478,63.126-154.017,105.445-184.643,117.626
			c171.83-18.059,236.772-62.859,302.821-154.323C3028.316,1491.533,3111.985,1017.383,2921.571,759.029z" class="colorf6cc66 svgShape"></path><path fill="#f68f30" d="M3119.262,2084.809c0,0,137.148-73.133,137.148-246.869c0-173.716-27.43-329.135,137.148-347.429
				c164.582-18.296,246.926,54.862,256.027,137.146c9.168,82.293-155.468,393.184-365.75,493.74
				c-210.277,100.56-254.693,100.295-254.693,100.295" class="colorf68f30 svgShape"></path><path fill="#f8dd63" d="M3250.471,1974.354c90.547-173.996,45.578-344.976,127.829-397.703
				c69.245-44.385,230.808-30.179,259.219,85.222c1.615,6.569,3.058,12.691,4.392,18.517c6.367-21.929,9.093-40.052,7.684-52.728
				c-9.11-82.288-91.449-155.445-256.032-137.148c-164.582,18.294-137.148,173.71-137.148,347.431
				c0,151.785-104.686,226.786-131.134,243.311c-3.825,2.388-6.019,3.552-6.019,3.552l-0.583,0.884
				C3161.623,2078.588,3210.673,2050.822,3250.471,1974.354z" class="colorf8dd63 svgShape"></path><path fill="#f6cc66" d="M2821.109,1653.312c-91.017-74.164,72.093,42.392-47.348,52.057
				c80.712,67.422,245.945,135.546,303.602,348.877c35.512,131.384-39.949,354.202-177.823,417.525
				c119.311-35.188,223.82-106.162,241.599-242.427C3168.564,2019.041,3067.98,1854.486,2821.109,1653.312z" class="colorf6cc66 svgShape"></path><path fill="#ffffff" d="M1656.354 1060.766c0 0-6.862 57.149-34.291 105.151-27.426 48.002-34.283 178.295 61.721 205.726 96.004 27.43 137.148-6.858 198.865-6.858s205.723-41.145 219.442-137.148c13.715-96.005 0-178.295 6.857-240.014 6.857-61.717-61.721-219.437-144.01-144.004-82.289 75.43-130.291 123.432-178.293 130.291C1738.643 980.766 1679.216 967.05 1656.354 1060.766zM2192.239 1127.666c13.715 50.948 6.967 209.327 148.909 207.265 141.946-2.063 202.162-14.705 202.162-14.705l-1.979 52.194c0 0 28.097 45.873 65.387 47.293 37.29 1.419 120.703-32.749 63.91-109.573 45.863-28.127 100.32-85.773 87.41-138.543-12.939-52.744-28.474-232.539-124.558-258.602-96.088-26.065-109.563-63.901-153.174-95.431-43.59-31.528-89.465-3.401-171.767.939C2226.245 822.83 2133.374 908.898 2192.239 1127.666z" class="colorfff svgShape"></path><path fill="#231f20" d="M2295.973 1021.844c-23.424 42.913-22.258 97.318 6.857 137.284 7.327 10.06 20.505 8.129 25.06-3.283 19.717-49.258 21.013-99.219-1.38-147.714-3.896-8.44-15.522-8.211-21.537-2.773-42.768 38.588-28.512 104.564 6.857 142.829 6.535 7.071 21.244 4.164 22.917-6.055 6.442-39.095 1.485-77.414-15.095-113.43-5.075-11.05-22.313-7.514-25.056 3.283-5.733 22.488-15.376 47.185-14.214 70.691 1.258 25.381 26.05 17.344 37.126 4.364 11.425-13.366-7.889-32.866-19.394-19.392-7.365 8.611 9.24 17.932 9.739 8.437.361-7.003 2.492-14.185 4.043-21.001 2.734-12.013 6.094-23.879 9.135-35.815-8.342 1.1-16.701 2.185-25.06 3.282 13.22 28.744 17.464 61.103 12.335 92.296 7.633-2.024 15.284-4.032 22.917-6.054-25.568-27.673-38.25-75.714-6.857-104.041-7.181-.926-14.357-1.85-21.537-2.772 19.314 41.841 15.388 84.66-1.38 126.582 8.346-1.098 16.701-2.182 25.06-3.28-23.424-32.161-25.945-74.645-6.857-109.588C2328.134 1020.158 2304.453 1006.322 2295.973 1021.844L2295.973 1021.844zM1987.389 1042.415c-23.428 42.916-22.262 97.319 6.854 137.285 7.327 10.06 20.509 8.129 25.064-3.28 19.712-49.261 21.013-99.22-1.384-147.719-3.896-8.437-15.522-8.21-21.537-2.772-42.764 38.588-28.512 104.564 6.857 142.829 6.539 7.071 21.243 4.166 22.917-6.055 6.447-39.095 1.489-77.415-15.095-113.43-5.075-11.048-22.313-7.514-25.059 3.282-5.729 22.489-15.376 47.186-14.21 70.691 1.258 25.381 26.054 17.345 37.127 4.367 11.425-13.368-7.889-32.868-19.39-19.394-7.369 8.61 9.24 17.935 9.735 8.437.361-7.003 2.491-14.185 4.047-21.001 2.73-12.013 6.09-23.881 9.13-35.815-8.342 1.1-16.701 2.184-25.056 3.282 13.216 28.744 17.464 61.103 12.335 92.296 7.633-2.024 15.279-4.032 22.917-6.055-25.572-27.672-38.255-75.713-6.862-104.041-7.176-.923-14.356-1.847-21.536-2.772 19.314 41.842 15.392 84.661-1.376 126.583 8.342-1.098 16.701-2.182 25.056-3.28-23.424-32.159-25.94-74.642-6.857-109.586C2019.546 1040.73 1995.865 1026.893 1987.389 1042.415L1987.389 1042.415z" class="color231f20 svgShape"></path><path fill="#eedeb3" d="M1347.766,665.323c68.574,30.858,113.15,109.719,150.863,171.437
					c13.715-27.43,41.149-37.716,68.578-27.43c-65.147-68.578-137.153-123.435-229.73-147.438" class="coloreedeb3 svgShape"></path><path fill="#eedeb3" d="M1344.31,671.242c70.038,34.838,109.198,104.577,148.401,168.972
						c2.718,4.477,9.093,4.393,11.84,0c14.516-25.271,34.795-33.362,60.832-24.267c6.698,1.808,11.425-6.549,6.673-11.464
						c-66.02-68.361-140.244-123.316-232.754-149.206c-8.535-2.382-12.15,10.85-3.645,13.232
						c90.392,25.288,162.237,78.929,226.698,145.669c2.223-3.817,4.45-7.633,6.673-11.464c-33.31-8.972-58.236,1.62-76.317,30.59
						c3.951,0,7.885,0,11.84,0c-40.369-66.311-81.245-138.048-153.329-173.903C1343.332,655.479,1336.379,667.305,1344.31,671.242
						L1344.31,671.242z" class="coloreedeb3 svgShape"></path><path fill="#723a18" d="M2092.57 596.748c0 61.716-20.572 192.009 68.574 198.864 96.004 6.858 102.861-130.29 96.004-198.864M2312.393 596.748c-20.568 150.862 178.285 150.862 130.279 6.855M1933.079 616.13c-20.572 137.148 153.883 146.181 112.739-11.54" class="color723a18 svgShape"></path><path fill="#c16d29" d="M1752.812,1768.616c0,0,757.304,51.498,1020.949-63.248
				c-136.449,155.738-565.561,388.72-688.819,392.435c-123.258,3.716-293.8-28.385-348.026-47.541
				C1682.689,2031.107,1631.138,1946.385,1752.812,1768.616z" class="colorc16d29 svgShape"></path><path fill="#3d2b12" d="M1395.797,682.696c66.716,29.11,117.251,75.932,160.447,131.177
					c9.181,11.753,28.424-1.042,19.234-12.811c-45.515-58.216-99.607-107.898-169.909-138.556
					C1391.502,656.361,1381.759,676.574,1395.797,682.696L1395.797,682.696z" class="color3d2b12 svgShape"></path><path fill="#231f20" d="M1584.47 1294.846c12.964 87.165 100.21 111.232 177.035 112.239 4.421.051 4.421-6.806 0-6.859-73.716-.964-157.884-22.863-170.421-107.203C1590.43 1288.655 1583.829 1290.517 1584.47 1294.846L1584.47 1294.846zM2768.401 1079.06c3.804 34.049 12.247 67.063 19.125 100.545 13.455 65.682-7.281 108.663-71.468 133.87-4.068 1.594-2.299 8.236 1.82 6.616 40.293-15.831 72.76-37.355 80.473-82.198 8.837-51.391-17.464-108.165-23.089-158.833C2774.781 1074.723 2767.919 1074.67 2768.401 1079.06L2768.401 1079.06zM1588.929 1271.072c-5.771-66.834 34.434-118.506 45.594-181.952.759-4.325-5.855-6.174-6.618-1.82-11.236 63.94-51.647 116.563-45.833 183.772C1582.445 1275.438 1589.306 1275.477 1588.929 1271.072L1588.929 1271.072zM2119.249 1083.63c0 48.764 0 97.531 0 146.296 0 4.42 6.853 4.42 6.853 0 0-48.765 0-97.532 0-146.296C2126.102 1079.208 2119.249 1079.208 2119.249 1083.63L2119.249 1083.63zM2121.522 1371.643c0 60.954 0 121.92 0 182.888 0 13.257 20.577 13.257 20.577 0 0-60.967 0-121.934 0-182.888C2142.098 1358.371 2121.522 1358.371 2121.522 1371.643L2121.522 1371.643z" class="color231f20 svgShape"></path><path fill="#231f20" d="M2105.517 1655.09c.847-39.272 12.486-72.51 35.172-104.522-6.266-.832-12.537-1.662-18.807-2.465 10.355 49.235 26.238 97.073 36.577 146.311 2.734 12.963 22.568 7.448 19.851-5.461-10.351-49.238-26.238-97.082-36.577-146.314-1.996-9.483-14.088-9.108-18.802-2.463-24.699 34.821-37.076 72.272-37.986 114.915C2084.664 1668.375 2105.236 1668.323 2105.517 1655.09L2105.517 1655.09zM1858.285 844.071c8.946-32.707 34.639-48.618 65.965-56.813 12.83-3.363 7.382-23.211-5.465-19.849-38.28 10.031-69.497 31.58-80.347 71.201C1834.94 851.425 1854.791 856.851 1858.285 844.071L1858.285 844.071zM2488.4 760.188c38.947.978 69.833 21.844 93.299 51.847 8.17 10.447 22.606-4.219 14.545-14.546-26.817-34.273-63.726-56.775-107.844-57.873C2475.138 739.28 2475.138 759.852 2488.4 760.188L2488.4 760.188zM2319.238 2506.543c23.642-2.678 47.226-1.877 70.864-4.551 5.628-.643 10.204-4.181 10.288-10.288 1.288-96.165-8.317-191.905-9.147-288.013-.122-13.259-20.694-13.29-20.572 0 .507 59.173 4.165 118.157 7.122 177.221 1.489 29.543 2.16 59.089 2.319 88.639.134 22.954-46.182 14.757-60.874 16.422C2306.219 2487.469 2306.073 2508.047 2319.238 2506.543L2319.238 2506.543z" class="color231f20 svgShape"></path><defs><path id="a" d="M3250.471,1970.802c90.547-173.991,45.578-344.976,127.829-397.698
						c69.245-44.388,230.808-30.182,259.219,85.222c1.615,6.564,3.058,12.691,4.392,18.512c6.367-21.924,9.093-40.047,7.684-52.728
						c-9.11-82.286-91.449-155.442-256.032-137.146c-164.582,18.293-137.148,173.713-137.148,347.428
						c0,151.786-104.686,226.787-131.134,243.312c-3.825,2.393-6.019,3.559-6.019,3.559l-0.583,0.884
						C3161.623,2075.041,3210.673,2047.275,3250.471,1970.802z"></path></defs><use fill="#f6cc66" overflow="visible" xlink:href="#a" class="colorf6cc66 svgShape"></use><clipPath id="b"><use overflow="visible" xlink:href="#a"></use></clipPath><g clip-path="url(#b)"><path fill="#f6cc66" d="M3175.111 1643.501c136.771 133.939 362.697 136.342 538.716 98.47 34.581-7.443 19.901-60.322-14.574-52.878-155.984 33.564-363.746 34.72-485.354-84.38C3188.608 1579.959 3149.795 1618.722 3175.111 1643.501L3175.111 1643.501zM3156.842 1844.644c116.362 125.763 320.881 140.337 462.962 50.013 29.757-18.908 2.277-66.408-27.698-47.36-122.125 77.627-296.131 66.995-396.477-41.436C3171.521 1779.844 3132.838 1818.74 3156.842 1844.644L3156.842 1844.644z" class="colorf6cc66 svgShape"></path></g><defs><path id="c" d="M3029.142,2221.692c0,0,44.416,9.426,254.693-91.13c210.282-100.587,374.918-411.452,365.75-493.739
						c-9.101-82.292-91.445-155.461-256.027-137.165c-164.578,18.296-137.148,173.7-137.148,347.441
						c0,173.742-137.148,246.87-137.148,246.87"></path></defs><clipPath id="d"><use overflow="visible" xlink:href="#c"></use></clipPath><g clip-path="url(#d)"><path fill="#231f20" d="M3182.212 1647.054c136.771 133.934 362.697 136.347 538.708 98.47 34.585-7.449 19.91-60.327-14.566-52.878-155.98 33.566-363.741 34.715-485.354-84.38C3195.713 1583.517 3156.9 1622.279 3182.212 1647.054L3182.212 1647.054zM3163.942 1848.202c116.362 125.762 320.881 140.337 462.958 50.007 29.762-18.912 2.277-66.402-27.694-47.36-122.121 77.632-296.131 66.996-396.476-41.44C3178.622 1783.401 3139.943 1822.299 3163.942 1848.202L3163.942 1848.202z" class="color231f20 svgShape"></path></g><path fill="#3d2b12" d="M1348.189,662.561c50.292-18.281,235.43-32.011,285.722-9.147
					c-41.14,0-176.003,18.297-180.57,50.294c-18.295-22.863-50.292-31.997-77.722-36.577c-18.282-4.57-27.43-9.137-18.282,0" class="color3d2b12 svgShape"></path><path fill="#3d2b12" d="M1355.563,661.932c-1.124-1.686-2.261-3.373-3.389-5.075
						c-3.867,5.049-7.742,10.084-11.609,15.121c34.057,5.104,81.962,11.342,106.833,36.507c5.763,5.839,2.672,5.041,5.218-2.043
						c13.941-38.868,137.32-42.044,170.647-42.742c12.184-0.255,13.245-16.15,2.731-20.211
						c-42.726-16.472-93.739-13.071-138.528-11.532c-50.12,1.714-104.631,5.051-152.658,20.679
						c-12.566,4.099-7.181,23.963,5.465,19.849l0,0c76.598-24.937,203.445-38.773,280.257-9.147
						c0.914-6.736,1.824-13.474,2.734-20.211c-47.427,0.991-170.865,3.134-190.498,57.847c5.733-1.514,11.467-3.027,17.196-4.541
						c-27.828-28.166-65.466-38.533-103.935-44.291c-8.036-1.206-17.208,6.736-11.609,15.108c1.124,1.688,2.265,3.375,3.389,5.077" class="color3d2b12 svgShape"></path><path fill="#f8a560" d="M1500.919,832.19" class="colorf8a560 svgShape"></path><path fill="#8c5122" d="M2724.929,532.684c0,0,163.341-23.967,130.496,41.723
				c-32.848,65.69,124.436-121.669,124.436-121.669S2873.175,457.228,2724.929,532.684z" class="color8c5122 svgShape"></path><path fill="#231f20" d="M2039.262,1332.078c41.141-41.145,123.434-48.003,185.15-13.713
				c-34.287,27.43-68.574,54.857-96.008,82.29C2100.975,1380.08,2066.692,1352.65,2039.262,1332.078" class="color231f20 svgShape"></path><path fill="#eee1c4" d="M2765.767,651.641c0,0,141.166,74.521,155.804,99.401c-1.342-44.365,43.351-256.628,58.29-298.303
				C2947.747,475.871,2809.26,604.593,2765.767,651.641z" class="coloreee1c4 svgShape"></path><g><path fill="#8c5122" d="M2774.604,651.599c32.802-40.387,65.667-81.053,107.165-112.954
					c10.062-7.735,0.134-25.1-10.079-17.248c-43.028,33.076-77.172,74.168-111.212,116.08
					C2752.438,647.377,2766.476,661.602,2774.604,651.599L2774.604,651.599z" class="color8c5122 svgShape"></path></g><circle cx="1617.056" cy="1523.336" r="100.082" fill="#eeaac0" transform="rotate(-45.001 1617.046 1523.362)" class="coloreeaac0 svgShape"></circle><g><path fill="#231f20" d="M1234.4 1752.875c53.748-126.485 175.818-205.052 298.044-256.885 12.18-5.155 1.678-22.876-10.393-17.758-124.973 52.996-250.47 134.982-305.409 264.251C1211.512 1754.567 1229.228 1765.068 1234.4 1752.875L1234.4 1752.875zM1379.454 1709.267c31.523-78.804 110.738-129.966 180.42-172.132 11.333-6.856.994-24.643-10.389-17.758-74.991 45.404-156.064 99.944-189.881 184.428C1354.671 1716.127 1374.576 1721.428 1379.454 1709.267L1379.454 1709.267zM1567.981 1582.702c-89.256 93.784-143.071 216.093-174.091 340.544-3.204 12.879 16.634 18.352 19.847 5.462 30.177-121.077 81.916-240.175 168.789-331.462C1591.661 1587.655 1577.141 1573.08 1567.981 1582.702L1567.981 1582.702z" class="color231f20 svgShape"></path></g><g><path fill="#231f20" d="M2411.354,1793.326c-72.084,0-122.15-6.022-127.976-6.762l3.426-27.214
				c4.169,0.535,415.472,49.81,620.431-145.238c86.604-82.387,124.922-197.782,113.925-342.996l27.35-2.063
				c11.651,153.838-29.535,276.643-122.415,364.985C2783.517,1769.622,2554.219,1793.326,2411.354,1793.326z" class="color231f20 svgShape"></path></g><g><path fill="#231f20" d="M2866.015 1388.426c106.879-31.756 218.045 27.24 307.519 81.245 11.379 6.869 21.696-10.916 10.393-17.76-94.184-56.83-211.032-116.699-323.376-83.334C2847.855 1372.353 2853.265 1392.203 2866.015 1388.426L2866.015 1388.426zM2883.857 1464.22c84.164-4.153 161.818 31.206 227.956 80.882 10.611 7.983 20.841-9.896 10.393-17.758-68.897-51.752-150.868-88.023-238.349-83.698C2870.621 1444.304 2870.571 1464.875 2883.857 1464.22L2883.857 1464.22zM2842.713 1532.794c118.854 5.425 220.696 96.017 294.441 182.135 8.623 10.1 23.147-4.526 14.545-14.544-77.47-90.454-184.429-182.471-308.987-188.162C2829.422 1511.619 2829.48 1532.191 2842.713 1532.794L2842.713 1532.794z" class="color231f20 svgShape"></path></g><path fill="#a3ddf7" d="M2145.525,1944.925l-9.151,658.317c0,0-804.612-9.135-1014.903,64.02
		c-27.434-228.598-91.428-585.188-91.428-585.188S1542.063,1981.492,2145.525,1944.925z" class="colora3ddf7 svgShape"></path><path fill="#c16d29" d="M2047.227,1915.676c0,0-25.135,141.701-100.571,137.149c-75.432-4.551-70.864-2.304-77.722-36.593
		c-6.858-34.288-41.145-86.844-48.002-93.7" class="colorc16d29 svgShape"></path><g><path fill="#231f20" d="M1790.072,1911.12c0.927-122.36,153.786-119.042,218.661-47.469
			c51.785,57.087,19.075,134.849-40.738,168.009c-53.471,29.68-94.641,5.358-104.564-51.589
			c-4.127-23.573-13.274-39.105-32.735-52.717c-10.917-7.61-21.176,10.231-10.393,17.784
			c37.865,26.413,20.681,83.577,61.608,111.915c31.385,21.727,78.41,2.414,107.219-13.555
			c65.198-36.161,83.12-117.029,45.284-179.603c-64.946-107.443-263.841-95.766-264.915,47.224
			C1769.407,1924.383,1789.979,1924.353,1790.072,1911.12L1790.072,1911.12z" class="color231f20 svgShape"></path></g><g><path fill="#231f20" d="M1906.652,1984.253c0.39,21.16,4.899,41.571,9.508,62.143c2.906,12.967,22.741,7.474,19.851-5.467
			c-4.22-18.799-8.439-37.337-8.791-56.676C1926.981,1971.02,1906.408,1970.963,1906.652,1984.253L1906.652,1984.253z" class="color231f20 svgShape"></path></g><g><path fill="#231f20" d="M1961.511,1977.392c-1.875,20.036,2.076,39.589,10.553,57.753
			c5.599,12.025,23.332,1.55,17.762-10.393c-6.954-14.866-9.269-31.073-7.743-47.361
			C1983.317,1964.185,1962.744,1964.321,1961.511,1977.392L1961.511,1977.392z" class="color231f20 svgShape"></path></g><g><path fill="#231f20" d="M1313.063,2088.17c3.829,13.903-1.568,32.946-2.588,47.25
					c-0.705,9.846-0.789,19.745-1.271,29.618c-0.63,13.201-8.544,48.083,1.489,58.875c1.393,1.524,3.993,1.488,5.625,0.432
					c1.526-0.977,2.21-2.091,3.053-3.672c2.81-5.275-5.44-9.483-8.237-4.234c3.926-7.313,6.081,4.056,5.788-7.074
					c-0.147-6.222,0.146-12.484,0.344-18.685c0.432-13.055,1.221-26.069,1.77-39.136c0.83-19.85,8.157-46.834,2.802-66.32
					C1320.256,2079.461,1311.482,2082.437,1313.063,2088.17L1313.063,2088.17z" class="color231f20 svgShape"></path><path fill="#231f20" d="M1321.955 2091.707c16.932-7.271 35.373-8.625 53.455-5.629 24.095 3.984 44.344 25.748 32.022 50.975-6.841 14.039-33.884 24.437-48.966 24.26-6.778-.084-13.606-1.082-20.317-1.914-4.274-.525-11.785-3.776-9.147-.032-1.191 2.403-2.382 4.786-3.561 7.158 2.261-.094 4.605.239 6.828.427 5.88.535 7.834-8.521 1.875-9.052-3.041-.27-6.224-.77-9.294-.603-3.401.172-5.595 4.308-3.578 7.136 5.415 7.677 31.435 6.023 40.033 6.148 20.413.249 47.348-14.919 56.281-33.229 10.246-21.003-4.152-44.909-22.556-54.635-22.204-11.736-53.639-9.415-76.031.218C1313.558 2085.277 1316.44 2094.062 1321.955 2091.707L1321.955 2091.707zM1413.513 2223.216c8.359-29.076 19.302-56.857 32.509-84.072 5.956-12.265 12.75-24.067 19.688-35.813 9.374-15.912 11.332-5.196 16.273 7.126 14.159 35.412 15.778 75.189 23.655 112.254 1.216 5.836 9.99 2.82 8.757-2.954-9.336-44.021-8.141-103.167-38.964-138.954-2.126-2.475-5.784-.895-7.231 1.311-28.004 43.268-49.529 89.685-63.738 139.225C1402.814 2227.091 1411.869 2228.913 1413.513 2223.216L1413.513 2223.216zM1649.094 2098.728c-43.355-53.872-139.132 16.885-121.802 75.953 17.842 60.868 130.559 55.38 137.702-9.446.281-2.507-.94-4.932-3.607-5.478-.977-.213-1.992-.41-2.999-.619-2.357-.488-5.087 1.093-5.465 3.579-2.277 15.126-1.997 30.273.176 45.404.856 5.852 10.083 5.32 9.24-.577-.763-5.317-.361-38.211-4.312-39.044.294.074-17.359 26.123-23.093 29.926-22.607 15.037-55.702 10.449-78.015-2.117-71.347-40.219 40.192-147.49 84.42-92.493C1645.051 2108.424 1652.831 2103.368 1649.094 2098.728L1649.094 2098.728zM1693.384 2089.241c-2.596 30.804-14.613 91.359 12.553 114.85 24.59 21.269 79.597-5.29 107.068-9.831 5.85-.978 5.301-10.216-.579-9.237-29.006 4.774-56.667 15.267-86.399 16.238-39.03 1.249-25.53-87.042-23.575-110.158C1702.934 2085.236 1693.908 2083.295 1693.384 2089.241L1693.384 2089.241z" class="color231f20 svgShape"></path><path fill="#231f20" d="M1701.432 2145.386c22.757-8.65 47.511-10.996 71.443-6.565 5.855 1.103 7.755-7.968 1.891-9.05-25.504-4.713-52.036-2.382-76.279 6.856C1692.931 2138.718 1695.837 2147.519 1701.432 2145.386L1701.432 2145.386zM1698.769 2097.574c32.723-9.992 70.327-21.15 104.778-15.376 5.864.988 7.768-8.077 1.875-9.056-36.041-6.049-75.327 5.186-109.61 15.656C1690.117 2090.552 1693.078 2099.326 1698.769 2097.574L1698.769 2097.574zM1349.011 2366.077c-.336-30.407-5.838-60.115-9.617-90.195-2.584 1.244-5.142 2.476-7.713 3.725 29.799 34.018 50.506 77.212 90.354 101.169 1.963 1.166 5.423.271 6.237-2.018 12.952-36.201 16.596-77.804 7.768-115.427-1.376-5.8-10.125-2.815-8.783 2.96 3.725 15.833 4.299 31.865 3.926 48.058-.256 10.938-1.22 62.724-20.48 47.308-29.774-23.835-47.91-60.49-72.835-88.926-2.693-3.065-8.195-.078-7.713 3.756 3.787 30.063 9.277 59.785 9.6 90.188C1339.822 2372.651 1349.053 2372.015 1349.011 2366.077L1349.011 2366.077zM1669.264 2492.504c-.336-30.413-5.839-60.135-9.588-90.216-2.6 1.26-5.159 2.508-7.73 3.725 29.799 34.029 50.523 77.223 90.35 101.2 1.959 1.155 5.427.25 6.245-2.022 12.964-36.204 16.579-77.82 7.768-115.427-1.38-5.826-10.137-2.825-8.774 2.932 3.712 15.835 4.286 31.865 3.926 48.073-.281 10.945-1.221 62.729-20.505 47.315-29.787-23.834-47.897-60.494-72.823-88.916-2.688-3.079-8.183-.067-7.713 3.725 3.779 30.095 9.269 59.785 9.617 90.205C1660.091 2499.069 1669.33 2498.454 1669.264 2492.504L1669.264 2492.504zM1570.768 2273.885c-27.967-29.545-77.965-5.706-99.129 20.385-25.207 31.089-3.267 70.83 32.253 80.093 32.161 8.402 67.694-13.777 83.874-40.505 19.914-32.893-5.293-58.807-36.648-67.858-5.746-1.654-7.579 7.418-1.887 9.052 28.633 8.29 45.968 28.701 28.902 56.894-13.165 21.742-41.358 36.7-66.632 34.357-15.346-1.422-27.065-10.847-35.998-22.716-11.202-14.877-5.415-32.719 5.209-45.805 17.599-21.712 61.021-41.145 83.841-17.024C1568.679 2285.099 1574.841 2278.181 1570.768 2273.885L1570.768 2273.885zM1487.418 2417.239c-27.962-29.566-77.961-5.723-99.124 20.369-25.219 31.1-3.28 70.824 32.253 80.093 32.156 8.394 67.689-13.784 83.87-40.498 19.914-32.895-5.293-58.8-36.657-67.859-5.733-1.645-7.596 7.428-1.879 9.069 28.638 8.261 45.943 28.693 28.906 56.886-13.165 21.736-41.358 36.679-66.645 34.34-15.338-1.42-27.057-10.851-35.99-22.72-11.198-14.877-5.427-32.688 5.197-45.79 17.599-21.711 61.033-41.159 83.857-17.023C1485.317 2428.443 1491.49 2421.536 1487.418 2417.239L1487.418 2417.239zM1654.253 2278.316c-5.469 14.71-.365 34.518 1.95 49.374 2.265 14.605 3.75 32.905 10.934 46.096 2.848 5.253 10.565.145 7.726-5.063-6.375-11.771-7.314-28.676-9.428-41.616-2.021-12.369-7.499-32.302-2.948-44.567C1664.549 2276.995 1656.324 2272.73 1654.253 2278.316L1654.253 2278.316zM1596.952 2284.33c35.025-12.333 71.238-27.054 109.035-20.786 5.868.968 7.78-8.089 1.875-9.066-39.563-6.55-77.105 8.155-113.871 21.081C1588.379 2277.542 1591.299 2286.317 1596.952 2284.33L1596.952 2284.33z" class="color231f20 svgShape"></path><g><path fill="#231f20" d="M1269.83,2436.132c7.109,14.23,5.1,37.8,6.413,53.295c1.111,13.377-1.367,36.42,7.944,47.01
					c1.044,1.197,3.162,1.447,4.567,0.938c5.238-1.831,4.676-6.545,5.129-11.381c0.537-5.867-8.518-7.824-9.068-1.894
					c-0.805,8.749,3.548-3.049,4.421,2.896c-0.734-5.077-1.221-10.205-1.757-15.348c-1.216-12.298-2.156-24.635-3.188-36.926
					c-1.178-13.624-0.453-31.112-6.736-43.647C1274.905,2425.728,1267.205,2430.866,1269.83,2436.132L1269.83,2436.132z" class="color231f20 svgShape"></path><path fill="#231f20" d="M1279.724 2476.733c23.227-4.624 46.639-8.237 70.281-10.116 5.943-.484 5.368-9.722-.592-9.244-24.448 1.935-48.618 5.806-72.646 10.571C1270.942 2469.118 1273.953 2477.878 1279.724 2476.733L1279.724 2476.733zM1276.86 2434.435c33.591-17.685 73.494-20.921 110.482-26.216 5.855-.843 5.331-10.081-.575-9.228-38.666 5.534-79.919 9.242-114.982 27.724C1266.509 2429.494 1271.638 2437.203 1276.86 2434.435L1276.86 2434.435z" class="color231f20 svgShape"></path></g><g><path fill="#231f20" d="M1547.595,2411.757c-7.218,40.612,2.504,120.987,61.021,105.797
				c47.495-12.347,20.199-97.705,12.176-127.613c-1.539-5.763-10.313-2.8-8.77,2.945c8.384,31.345,22.246,71.875,8.048,103.249
				c-4.983,11.029-16.126,13.963-27.149,14.244c-18.026,0.45-26.306-15.741-31.464-30.15c-7.214-20.213-8.556-45.471-4.807-66.579
				C1557.695,2407.794,1548.64,2405.889,1547.595,2411.757L1547.595,2411.757z" class="color231f20 svgShape"></path></g><g><path fill="#231f20" d="M1779.733,2374.19c11.01,36.672,20.908,73.664,26.75,111.552
					c0.881,5.817,10.125,5.316,9.227-0.601c-5.947-38.668-15.955-76.464-27.203-113.899
					C1786.792,2365.51,1778.005,2368.48,1779.733,2374.19L1779.733,2374.19z" class="color231f20 svgShape"></path><path fill="#231f20" d="M1786.217,2374.098c37.659-11.574,82.289-3.289,97.677,37.179
					c16.957,44.556-29.384,65.093-65.802,64.76c-5.96-0.042-5.356,9.185,0.575,9.237c42.633,0.407,86.244-22.449,75.729-71.188
					c-10.85-50.21-68.964-61.699-111.128-48.779C1777.564,2367.064,1780.496,2375.835,1786.217,2374.098L1786.217,2374.098z" class="color231f20 svgShape"></path></g></g></svg></g></svg>